<svg width="9" height="12" viewBox="0 0 9 12" fill="none" xmlns="http://www.w3.org/2000/svg">
<path fill-rule="evenodd" clip-rule="evenodd" d="M5 2.00002V3.10002C7.2 3.30002 9 5.20002 9 7.50002C9 10 7 12 4.5 12C2 12 0 10 0 7.50002C0 5.20002 1.8 3.30002 4 3.10002V2.00002H3.4C3.1 2.00002 2.9 1.70002 2.9 1.50002C2.9 1.20002 3.1 0.900024 3.4 0.900024H5.6C5.9 0.900024 6.1 1.20002 6.1 1.50002C6.1 1.70002 5.9 2.00002 5.6 2.00002H5ZM4.5 8C4.2 8 4 7.8 4 7.5V4.5C4 4.2 4.2 4 4.5 4C4.8 4 5 4.2 5 4.5V7H7.5C7.8 7 8 7.2 8 7.5C8 7.8 7.8 8 7.5 8H4.5Z" fill="white"/>
</svg>
